<?xml version="1.0" encoding="UTF-8" standalone="no"?>
<!DOCTYPE svg PUBLIC "-//W3C//DTD SVG 1.1//EN" "http://www.w3.org/Graphics/SVG/1.1/DTD/svg11.dtd">
<svg width="100%" height="100%" viewBox="0 0 256 256" version="1.1" xmlns="http://www.w3.org/2000/svg" xmlns:xlink="http://www.w3.org/1999/xlink" xml:space="preserve" xmlns:serif="http://www.serif.com/" style="fill-rule:evenodd;clip-rule:evenodd;stroke-linejoin:round;stroke-miterlimit:2;">
    <g transform="matrix(0.383075,0,0,0.383075,11.0415,18.4026)">
        <path d="M255.564,512.86L255.638,302.662C240.805,303.595 237.585,304.933 224,304C198.061,302.219 173.4,298.2 151.1,288L134.4,288C60.2,288 0,348.2 0,422.4L0,464C0,490.5 21.5,512 48,512L255.564,512.86Z"/>
    </g>
    <path d="M102.923,116.097L102.923,99.155C102.923,93.612 107.424,89.111 112.968,89.111L140.846,89.111C144.072,82.575 145.884,75.217 145.884,67.436C145.884,40.353 123.934,18.403 96.85,18.403C69.767,18.403 47.817,40.353 47.817,67.436C47.817,94.52 69.767,116.47 96.85,116.47C98.906,116.47 100.932,116.343 102.923,116.097Z"/>
    <g transform="matrix(0.283101,0,0,0.283101,112.807,90.7234)">
        <path d="M32,464C32,490.332 53.668,512 80,512L368,512C394.332,512 416,490.332 416,464L416,128L32,128L32,464ZM304,208C304,199.223 311.223,192 320,192C328.777,192 336,199.223 336,208L336,432C336,440.777 328.777,448 320,448C311.223,448 304,440.777 304,432L304,208ZM208,208C208,199.223 215.223,192 224,192C232.777,192 240,199.223 240,208L240,432C240,440.777 232.777,448 224,448C215.223,448 208,440.777 208,432L208,208ZM112,208C112,199.223 119.223,192 128,192C136.777,192 144,199.223 144,208L144,432C144,440.777 136.777,448 128,448C119.223,448 112,440.777 112,432L112,208ZM432,32L312,32L302.6,13.3C298.545,5.158 290.196,-0.007 281.1,0L166.8,0C157.722,-0.035 149.388,5.145 145.4,13.3L136,32L16,32C7.223,32 -0,39.223 0,48L0,80C0,88.777 7.223,96 16,96L432,96C440.777,96 448,88.777 448,80L448,48C448,39.223 440.777,32 432,32Z" style="fill-rule:nonzero;"/>
    </g>
</svg>
