<?xml version="1.0" encoding="UTF-8" standalone="no"?>
<!DOCTYPE svg PUBLIC "-//W3C//DTD SVG 1.1//EN" "http://www.w3.org/Graphics/SVG/1.1/DTD/svg11.dtd">
<svg width="512px" height="512px" version="1.1" xmlns="http://www.w3.org/2000/svg" xmlns:xlink="http://www.w3.org/1999/xlink" xml:space="preserve" xmlns:serif="http://www.serif.com/" style="fill-rule:evenodd;clip-rule:evenodd;stroke-linejoin:round;stroke-miterlimit:2;">
    <rect id="HideUi" x="0" y="0" width="512" height="512" style="fill:none;"/>
    <path d="M83.043,64.654l-65.706,-1.441l415.599,385.574l61.727,-0.133l-411.62,-384Zm-60.603,47.042l0,290.773c0,14.145 11.484,25.629 25.629,25.629l308.902,0l-36.13,-34.172l-264.229,0l0,-249.91l-34.172,-32.32Zm133.101,-26.793l36.13,34.172l255.118,-0l-0,241.293l34.172,32.32l-0,-282.156c-0,-14.145 -11.484,-25.629 -25.629,-25.629l-299.791,-0Zm97.881,245.258l-25.787,0l0,32.758l60.422,0l-34.635,-32.758Zm153.453,-7.544l-0,-111.843l-108.255,-0l-0,9.454l108.255,102.389Zm-318.063,-148.146l133.76,126.512l-133.76,-0l-0,-126.512Zm179.239,16.845l-44.912,-42.479l44.912,0l0,42.479Z"/>
</svg>
