<?xml version="1.0" encoding="UTF-8" standalone="no"?>
<!DOCTYPE svg PUBLIC "-//W3C//DTD SVG 1.1//EN" "http://www.w3.org/Graphics/SVG/1.1/DTD/svg11.dtd">
<svg width="513px" height="512px" version="1.1" xmlns="http://www.w3.org/2000/svg" xmlns:xlink="http://www.w3.org/1999/xlink" xml:space="preserve" xmlns:serif="http://www.serif.com/" style="fill-rule:evenodd;clip-rule:evenodd;stroke-linejoin:round;stroke-miterlimit:2;">
    <rect id="Noon" x="0.793" y="0" width="512" height="512" style="fill:none;"/>
    <circle cx="257.734" cy="256.857" r="132.831"/>
    <path d="M100.019,248.555c-0,-4.582 -3.72,-8.302 -8.302,-8.302l-66.436,-0c-4.582,-0 -8.302,3.72 -8.302,8.302l-0,16.604c-0,4.582 3.72,8.302 8.302,8.302l66.436,-0c4.582,-0 8.302,-3.72 8.302,-8.302l-0,-16.604Z"/>
    <path d="M497.522,248.555c0,-4.582 -3.72,-8.302 -8.302,-8.302l-66.436,-0c-4.582,-0 -8.302,3.72 -8.302,8.302l-0,16.604c-0,4.582 3.72,8.302 8.302,8.302l66.436,-0c4.582,-0 8.302,-3.72 8.302,-8.302l0,-16.604Z"/>
    <path d="M100.019,248.555c-0,-4.582 -3.72,-8.302 -8.302,-8.302l-66.436,-0c-4.582,-0 -8.302,3.72 -8.302,8.302l-0,16.604c-0,4.582 3.72,8.302 8.302,8.302l66.436,-0c4.582,-0 8.302,-3.72 8.302,-8.302l-0,-16.604Z"/>
    <path d="M497.522,248.555c0,-4.582 -3.72,-8.302 -8.302,-8.302l-66.436,-0c-4.582,-0 -8.302,3.72 -8.302,8.302l-0,16.604c-0,4.582 3.72,8.302 8.302,8.302l66.436,-0c4.582,-0 8.302,-3.72 8.302,-8.302l0,-16.604Z"/>
    <path d="M151.941,139.807c3.24,-3.24 3.24,-8.501 0,-11.741l-46.977,-46.977c-3.24,-3.24 -8.501,-3.24 -11.741,-0l-11.741,11.74c-3.24,3.24 -3.24,8.501 0,11.741l46.978,46.978c3.24,3.24 8.501,3.24 11.741,-0l11.74,-11.741Z"/>
    <path d="M433.019,420.884c3.239,-3.24 3.239,-8.501 -0,-11.741l-46.978,-46.977c-3.24,-3.24 -8.501,-3.24 -11.741,-0l-11.741,11.74c-3.239,3.24 -3.239,8.501 0,11.741l46.978,46.978c3.24,3.24 8.501,3.24 11.741,-0l11.741,-11.741Z"/>
    <path d="M265.552,99.625c4.582,0 8.302,-3.72 8.302,-8.302l0,-66.436c0,-4.582 -3.72,-8.302 -8.302,-8.302l-16.604,0c-4.581,0 -8.301,3.72 -8.301,8.302l-0,66.436c-0,4.582 3.72,8.302 8.301,8.302l16.604,0Z"/>
    <path d="M265.552,497.128c4.582,0 8.302,-3.72 8.302,-8.301l0,-66.437c0,-4.582 -3.72,-8.302 -8.302,-8.302l-16.604,0c-4.581,0 -8.301,3.72 -8.301,8.302l-0,66.437c-0,4.581 3.72,8.301 8.301,8.301l16.604,0Z"/>
    <path d="M374.3,151.548c3.24,3.24 8.501,3.24 11.741,-0l46.978,-46.978c3.239,-3.24 3.239,-8.501 -0,-11.741l-11.741,-11.74c-3.24,-3.24 -8.501,-3.24 -11.741,-0l-46.978,46.977c-3.239,3.24 -3.239,8.501 0,11.741l11.741,11.741Z"/>
    <path d="M93.223,432.625c3.24,3.24 8.501,3.24 11.741,-0l46.977,-46.978c3.24,-3.24 3.24,-8.501 0,-11.741l-11.74,-11.74c-3.24,-3.24 -8.501,-3.24 -11.741,-0l-46.978,46.977c-3.24,3.24 -3.24,8.501 0,11.741l11.741,11.741Z"/>
</svg>
