ply
format ascii 1.0
comment Created in Blender version 4.3.2
element vertex 81
property float x
property float y
property float z
property float nx
property float ny
property float nz
property float s
property float t
element face 128
property list uchar uint vertex_indices
end_header
-0.75 3.7252903e-09 -0.5 0 1 0 0.25 0.125
-0.5 3.7252903e-09 -0.75 0 1 0 0.12500001 0.25
-0.7500001 3.7252903e-09 -0.7500001 0 1 0 0.125 0.125
-0.5 3.7252903e-09 -0.25000006 0 1 0 0.375 0.25000003
-0.5 3.7252903e-09 -0.5 0 1 0 0.25000003 0.25000006
-0.7500001 3.7252903e-09 0 0 1 0 0.50000006 0.12500001
-0.7500001 3.7252903e-09 -0.25000003 0 1 0 0.37500003 0.125
-0.7500001 3.7252903e-09 0.25000003 0 1 0 0.62500006 0.125
-0.5 3.7252903e-09 2.9802322e-08 0 1 0 0.50000006 0.25000003
-0.75000006 3.7252903e-09 0.50000006 0 1 0 0.75000006 0.125
-0.5 3.7252903e-09 0.25000003 0 1 0 0.62500006 0.25000003
-0.5 3.7252903e-09 0.75 0 1 0 0.875 0.25
-0.5 3.7252903e-09 0.49999994 0 1 0 0.75 0.25000003
-0.25000003 3.7252903e-09 -0.5 0 1 0 0.25000003 0.37500003
-0.24999997 3.7252903e-09 -0.75 0 1 0 0.12500001 0.37500003
-0.25 3.7252903e-09 -0.25000006 0 1 0 0.37500003 0.37500006
-0.25000003 3.7252903e-09 0.25000003 0 1 0 0.62500006 0.37500006
-0.24999994 3.7252903e-09 0 0 1 0 0.5 0.37500006
-0.25000003 3.7252903e-09 0.5 0 1 0 0.75000006 0.37500003
-1.4901161e-08 3.7252903e-09 -0.5 0 1 0 0.25000003 0.50000006
-1.4901161e-08 3.7252903e-09 -0.7500001 0 1 0 0.12500001 0.50000006
0 3.7252903e-09 -0.25 0 1 0 0.37500006 0.50000006
-2.9802322e-08 3.7252903e-09 0.25 0 1 0 0.62500006 0.50000006
-2.9802322e-08 3.7252903e-09 2.9802322e-08 0 1 0 0.50000006 0.5
-2.9802322e-08 3.7252903e-09 0.5 0 1 0 0.75000006 0.50000006
-0.25000003 3.7252903e-09 0.7500001 0 1 0 0.8750001 0.37500003
0.25 3.7252903e-09 -0.75000006 0 1 0 0.12500003 0.62500006
0.24999999 3.7252903e-09 -0.25000006 0 1 0 0.37500003 0.62500006
0.25000006 3.7252903e-09 -0.49999997 0 1 0 0.25000003 0.62500006
0.25 3.7252903e-09 2.9802322e-08 0 1 0 0.50000006 0.62500006
0.25000003 3.7252903e-09 0.25 0 1 0 0.62500006 0.62500006
0.25000003 3.7252903e-09 0.7500001 0 1 0 0.8750001 0.62500006
0.25000006 3.7252903e-09 0.5 0 1 0 0.75 0.62500006
0.5 3.7252903e-09 -0.75 0 1 0 0.12500001 0.75
0.5 3.7252903e-09 -0.25000006 0 1 0 0.375 0.75
0.5 3.7252903e-09 -0.49999997 0 1 0 0.25000006 0.75
0.5 3.7252903e-09 0 0 1 0 0.50000006 0.75000006
0.5 3.7252903e-09 0.25000003 0 1 0 0.62500006 0.75000006
0.49999994 3.7252903e-09 0.75 0 1 0 0.87500006 0.75
0.5 3.7252903e-09 0.49999997 0 1 0 0.75 0.75
0.75 3.7252903e-09 -0.5 0 1 0 0.25 0.875
0.7500001 3.7252903e-09 -0.7500001 0 1 0 0.125 0.8750001
0.7500001 3.7252903e-09 -0.25000003 0 1 0 0.37500003 0.8750001
0.75 3.7252903e-09 0 0 1 0 0.50000006 0.87500006
0.75000006 3.7252903e-09 0.25000003 0 1 0 0.62500006 0.8750001
0.75000006 3.7252903e-09 0.50000006 0 1 0 0.75000006 0.87500006
-1.0000001 3.7252903e-09 -0.7500001 0 1 0 0.125 0
-0.75000006 3.7252903e-09 -1 0 1 0 0 0.12499999
-1.0000001 3.7252903e-09 -1.0000001 0 1 0 0 0
-1 3.7252903e-09 -0.49999997 0 1 0 0.25000003 0
-1.0000001 3.7252903e-09 0 0 1 0 0.50000006 0
-1.0000001 3.7252903e-09 -0.25000003 0 1 0 0.37500003 0
-1.0000001 3.7252903e-09 0.25000003 0 1 0 0.62500006 0
-1 3.7252903e-09 0.49999997 0 1 0 0.75 0
-0.75000006 3.7252903e-09 0.75000006 0 1 0 0.87500006 0.125
-1.0000001 3.7252903e-09 0.7500001 0 1 0 0.8750001 0
-0.75000006 3.7252903e-09 1 0 1 0 1 0.12499999
-0.5 3.7252903e-09 1.0000001 0 1 0 1.0000001 0.25000003
-0.24999994 3.7252903e-09 1 0 1 0 1 0.37500006
-2.9802322e-08 3.7252903e-09 0.7500001 0 1 0 0.8750001 0.50000006
0 3.7252903e-09 1.0000001 0 1 0 1.0000001 0.50000006
0.5 3.7252903e-09 1.0000001 0 1 0 1.0000001 0.75000006
0.75 3.7252903e-09 0.75 0 1 0 0.875 0.875
0.75000006 3.7252903e-09 1 0 1 0 1 0.87500006
1 3.7252903e-09 0.75000006 0 1 0 0.87500006 1
1.0000001 3.7252903e-09 0.5 0 1 0 0.75000006 1.0000001
1 3.7252903e-09 0.24999994 0 1 0 0.625 1
1.0000001 3.7252903e-09 0 0 1 0 0.50000006 1.0000001
1.0000001 3.7252903e-09 -0.25000003 0 1 0 0.37500003 1.0000001
1.0000001 3.7252903e-09 -0.5 0 1 0 0.25000003 1.0000001
1 3.7252903e-09 -0.75000006 0 1 0 0.125 1
0.75000006 3.7252903e-09 -1 0 1 0 0 0.87500006
1.0000001 3.7252903e-09 -1.0000001 0 1 0 0 1.0000001
0.49999997 3.7252903e-09 -1 0 1 0 0 0.75
0.24999994 3.7252903e-09 -1 0 1 0 0 0.625
0 3.7252903e-09 -1.0000001 0 1 0 0 0.50000006
-0.24999994 3.7252903e-09 -1 0 1 0 0 0.37500006
-0.5000001 3.7252903e-09 -1.0000001 0 1 0 0 0.25000003
-1.0000001 3.7252903e-09 1.0000001 0 1 0 1.0000001 0
0.25000003 3.7252903e-09 1.0000001 0 1 0 1.0000001 0.62500006
1.0000001 3.7252903e-09 1.0000001 0 1 0 1.0000001 1.0000001
3 0 1 2
3 0 3 4
3 5 3 6
3 7 8 5
3 9 10 7
3 9 11 12
3 1 13 14
3 3 13 4
3 8 15 3
3 8 16 17
3 12 16 10
3 11 18 12
3 14 19 20
3 15 19 13
3 17 21 15
3 17 22 23
3 16 24 22
3 25 24 18
3 19 26 20
3 19 27 28
3 23 27 21
3 22 29 23
3 24 30 22
3 24 31 32
3 28 33 26
3 28 34 35
3 29 34 27
3 30 36 29
3 32 37 30
3 32 38 39
3 33 40 41
3 34 40 35
3 36 42 34
3 37 43 36
3 39 44 37
3 38 45 39
3 46 47 48
3 49 2 46
3 49 6 0
3 50 6 51
3 52 5 50
3 53 7 52
3 53 54 9
3 55 56 54
3 56 11 54
3 57 25 11
3 58 59 25
3 60 31 59
3 31 61 38
3 61 62 38
3 63 64 62
3 62 65 45
3 45 66 44
3 43 66 67
3 42 67 68
3 42 69 40
3 40 70 41
3 71 70 72
3 33 71 73
3 26 73 74
3 20 74 75
3 76 20 75
3 1 76 77
3 2 77 47
3 0 4 1
3 0 6 3
3 5 8 3
3 7 10 8
3 9 12 10
3 9 54 11
3 1 4 13
3 3 15 13
3 8 17 15
3 8 10 16
3 12 18 16
3 11 25 18
3 14 13 19
3 15 21 19
3 17 23 21
3 17 16 22
3 16 18 24
3 25 59 24
3 19 28 26
3 19 21 27
3 23 29 27
3 22 30 29
3 24 32 30
3 24 59 31
3 28 35 33
3 28 27 34
3 29 36 34
3 30 37 36
3 32 39 37
3 32 31 38
3 33 35 40
3 34 42 40
3 36 43 42
3 37 44 43
3 39 45 44
3 38 62 45
3 46 2 47
3 49 0 2
3 49 51 6
3 50 5 6
3 52 7 5
3 53 9 7
3 53 55 54
3 55 78 56
3 56 57 11
3 57 58 25
3 58 60 59
3 60 79 31
3 31 79 61
3 61 63 62
3 63 80 64
3 62 64 65
3 45 65 66
3 43 44 66
3 42 43 67
3 42 68 69
3 40 69 70
3 71 41 70
3 33 41 71
3 26 33 73
3 20 26 74
3 76 14 20
3 1 14 76
3 2 1 77
