ply
format ascii 1.0
comment Created in Blender version 4.3.2
element vertex 66
property float x
property float y
property float z
property float nx
property float ny
property float nz
property float s
property float t
element face 64
property list uchar uint vertex_indices
end_header
0 -0.5 0 0 -1 0 0.75 0.25
0.5 -0.5 0 0.8641156 -0.5032934 0 0.75 0.49
0.49039263 -0.5 0.09754516 0.8475118 -0.5032934 0.16858062 0.79682165 0.48538846
0.5 -0.5 0 0.8641156 -0.5032934 0 0.25 0.49
0 0.5 0 1.7883247e-08 1 -7.451353e-08 0.25 0.25
0.49039263 -0.5 0.09754516 0.8475118 -0.5032934 0.16858062 0.29682168 0.48538846
0.46193975 -0.5 0.19134173 0.7983388 -0.5032934 0.3306827 0.841844 0.47173107
0.46193975 -0.5 0.19134173 0.7983388 -0.5032934 0.3306827 0.34184402 0.47173107
0.4157348 -0.5 0.27778512 0.7184859 -0.5032934 0.48007694 0.88333684 0.4495527
0.4157348 -0.5 0.27778512 0.7184859 -0.5032934 0.48007694 0.38333684 0.4495527
0.35355338 -0.5 0.35355338 0.611022 -0.50329345 0.611022 0.9197056 0.41970563
0.35355338 -0.5 0.35355338 0.611022 -0.50329345 0.611022 0.41970563 0.41970563
0.27778512 -0.5 0.4157348 0.4800769 -0.50329345 0.71848583 0.9495527 0.38333684
0.27778512 -0.5 0.4157348 0.4800769 -0.50329345 0.71848583 0.4495527 0.38333684
0.19134173 -0.5 0.46193975 0.33068272 -0.5032935 0.7983388 0.97173107 0.34184402
0.19134173 -0.5 0.46193975 0.33068272 -0.5032935 0.7983388 0.47173107 0.34184402
0.09754516 -0.5 0.49039263 0.16858062 -0.5032934 0.8475118 0.98538846 0.29682168
0.09754516 -0.5 0.49039263 0.16858062 -0.5032934 0.8475118 0.48538846 0.29682168
0 -0.5 0.5 0 -0.5032934 0.8641157 0.99 0.25
0 -0.5 0.5 0 -0.5032934 0.8641157 0.49 0.25
-0.09754516 -0.5 0.49039263 -0.16858062 -0.5032934 0.8475118 0.98538846 0.20317832
-0.09754516 -0.5 0.49039263 -0.16858062 -0.5032934 0.8475118 0.48538846 0.20317832
-0.19134173 -0.5 0.46193975 -0.33068272 -0.5032935 0.7983388 0.97173107 0.15815598
-0.19134173 -0.5 0.46193975 -0.33068272 -0.5032935 0.7983388 0.47173107 0.15815598
-0.27778512 -0.5 0.4157348 -0.4800769 -0.50329345 0.71848583 0.9495527 0.11666314
-0.27778512 -0.5 0.4157348 -0.4800769 -0.50329345 0.71848583 0.4495527 0.11666314
-0.35355338 -0.5 0.35355338 -0.611022 -0.50329345 0.611022 0.9197056 0.080294386
-0.35355338 -0.5 0.35355338 -0.611022 -0.50329345 0.611022 0.41970563 0.080294386
-0.4157348 -0.5 0.27778512 -0.7184859 -0.5032934 0.48007694 0.88333684 0.0504473
-0.4157348 -0.5 0.27778512 -0.7184859 -0.5032934 0.48007694 0.38333684 0.0504473
-0.46193975 -0.5 0.19134173 -0.7983388 -0.50329334 0.3306827 0.841844 0.028268918
-0.46193975 -0.5 0.19134173 -0.7983388 -0.50329334 0.3306827 0.34184402 0.028268918
-0.49039263 -0.5 0.09754516 -0.8475118 -0.5032934 0.16858062 0.79682165 0.014611542
-0.49039263 -0.5 0.09754516 -0.8475118 -0.5032934 0.16858062 0.29682168 0.014611542
-0.5 -0.5 0 -0.8641156 -0.5032934 0 0.75 0.010000005
-0.5 -0.5 0 -0.8641156 -0.5032934 0 0.25 0.010000005
-0.49039263 -0.5 -0.09754516 -0.8475118 -0.5032934 -0.16858062 0.70317835 0.014611542
-0.49039263 -0.5 -0.09754516 -0.8475118 -0.5032934 -0.16858062 0.20317832 0.014611542
-0.46193975 -0.5 -0.19134173 -0.7983388 -0.5032934 -0.3306827 0.658156 0.028268918
-0.46193975 -0.5 -0.19134173 -0.7983388 -0.5032934 -0.3306827 0.15815598 0.028268918
-0.4157348 -0.5 -0.27778512 -0.7184859 -0.5032934 -0.48007694 0.61666316 0.0504473
-0.4157348 -0.5 -0.27778512 -0.7184859 -0.5032934 -0.48007694 0.11666314 0.0504473
-0.35355338 -0.5 -0.35355338 -0.611022 -0.50329345 -0.611022 0.5802944 0.080294386
-0.35355338 -0.5 -0.35355338 -0.611022 -0.50329345 -0.611022 0.080294386 0.080294386
-0.27778512 -0.5 -0.4157348 -0.4800769 -0.50329345 -0.71848583 0.5504473 0.11666314
-0.27778512 -0.5 -0.4157348 -0.4800769 -0.50329345 -0.71848583 0.0504473 0.11666314
-0.19134173 -0.5 -0.46193975 -0.33068272 -0.5032935 -0.7983388 0.52826893 0.15815598
-0.19134173 -0.5 -0.46193975 -0.33068272 -0.5032935 -0.7983388 0.028268918 0.15815598
-0.09754516 -0.5 -0.49039263 -0.16858062 -0.5032934 -0.8475118 0.51461154 0.20317832
-0.09754516 -0.5 -0.49039263 -0.16858062 -0.5032934 -0.8475118 0.014611542 0.20317832
0 -0.5 -0.5 0 -0.5032934 -0.8641157 0.51 0.25
0 -0.5 -0.5 0 -0.5032934 -0.8641157 0.010000005 0.25
0.09754516 -0.5 -0.49039263 0.16858062 -0.5032934 -0.8475118 0.51461154 0.29682168
0.09754516 -0.5 -0.49039263 0.16858062 -0.5032934 -0.8475118 0.014611542 0.29682168
0.19134173 -0.5 -0.46193975 0.33068272 -0.5032935 -0.7983388 0.52826893 0.34184402
0.19134173 -0.5 -0.46193975 0.33068272 -0.5032935 -0.7983388 0.028268918 0.34184402
0.27778512 -0.5 -0.4157348 0.4800769 -0.50329345 -0.71848583 0.5504473 0.38333684
0.27778512 -0.5 -0.4157348 0.4800769 -0.50329345 -0.71848583 0.0504473 0.38333684
0.35355338 -0.5 -0.35355338 0.611022 -0.50329345 -0.611022 0.5802944 0.41970563
0.35355338 -0.5 -0.35355338 0.611022 -0.50329345 -0.611022 0.080294386 0.41970563
0.4157348 -0.5 -0.27778512 0.7184859 -0.5032934 -0.48007694 0.61666316 0.4495527
0.4157348 -0.5 -0.27778512 0.7184859 -0.5032934 -0.48007694 0.11666314 0.4495527
0.46193975 -0.5 -0.19134173 0.7983388 -0.50329334 -0.3306827 0.658156 0.47173107
0.46193975 -0.5 -0.19134173 0.7983388 -0.50329334 -0.3306827 0.15815598 0.47173107
0.49039263 -0.5 -0.09754516 0.8475118 -0.5032934 -0.16858062 0.70317835 0.48538846
0.49039263 -0.5 -0.09754516 0.8475118 -0.5032934 -0.16858062 0.20317832 0.48538846
3 0 1 2
3 3 4 5
3 0 2 6
3 5 4 7
3 0 6 8
3 7 4 9
3 0 8 10
3 9 4 11
3 0 10 12
3 11 4 13
3 0 12 14
3 13 4 15
3 0 14 16
3 15 4 17
3 0 16 18
3 17 4 19
3 0 18 20
3 19 4 21
3 0 20 22
3 21 4 23
3 0 22 24
3 23 4 25
3 0 24 26
3 25 4 27
3 0 26 28
3 27 4 29
3 0 28 30
3 29 4 31
3 0 30 32
3 31 4 33
3 0 32 34
3 33 4 35
3 0 34 36
3 35 4 37
3 0 36 38
3 37 4 39
3 0 38 40
3 39 4 41
3 0 40 42
3 41 4 43
3 0 42 44
3 43 4 45
3 0 44 46
3 45 4 47
3 0 46 48
3 47 4 49
3 0 48 50
3 49 4 51
3 0 50 52
3 51 4 53
3 0 52 54
3 53 4 55
3 0 54 56
3 55 4 57
3 0 56 58
3 57 4 59
3 0 58 60
3 59 4 61
3 0 60 62
3 61 4 63
3 0 62 64
3 63 4 65
3 0 64 1
3 65 4 3
