<?xml version="1.0" encoding="UTF-8" standalone="no"?>
<!DOCTYPE svg PUBLIC "-//W3C//DTD SVG 1.1//EN" "http://www.w3.org/Graphics/SVG/1.1/DTD/svg11.dtd">
<svg width="100%" height="100%" viewBox="0 0 256 256" version="1.1" xmlns="http://www.w3.org/2000/svg" xmlns:xlink="http://www.w3.org/1999/xlink" xml:space="preserve" xmlns:serif="http://www.serif.com/" style="fill-rule:evenodd;clip-rule:evenodd;stroke-linejoin:round;stroke-miterlimit:2;">
    <path d="M235.344,63.558C235.344,56.935 229.967,51.558 223.344,51.558L32.656,51.558C26.033,51.558 20.656,56.935 20.656,63.558L20.656,200.249C20.656,206.872 26.033,212.249 32.656,212.249L223.344,212.249C229.967,212.249 235.344,206.872 235.344,200.249L235.344,63.558ZM36.656,67.558L36.656,196.249L219.344,196.249L219.344,67.558L36.656,67.558Z"/>
    <path d="M149.969,110.493L149.969,166.393L116.732,166.393L116.732,181.731L200.656,181.731L200.656,110.493L149.969,110.493Z" style="fill:url(#foreground);"/>
    <rect x="51.732" y="81.493" width="83.924" height="71.238" style="fill:url(#foreground);"/>

	<defs>
        <linearGradient id="foreground">
			<stop stop-color="#FF1493"/>
		</linearGradient>
    </defs>
</svg>
