<?xml version="1.0" encoding="UTF-8" standalone="no"?>
<!DOCTYPE svg PUBLIC "-//W3C//DTD SVG 1.1//EN" "http://www.w3.org/Graphics/SVG/1.1/DTD/svg11.dtd">
<svg width="513px" height="512px" version="1.1" xmlns="http://www.w3.org/2000/svg" xmlns:xlink="http://www.w3.org/1999/xlink" xml:space="preserve" xmlns:serif="http://www.serif.com/" style="fill-rule:evenodd;clip-rule:evenodd;stroke-linejoin:round;stroke-miterlimit:2;">
    <rect id="TransformScale" x="0.793" y="0" width="512" height="512" style="fill:none;"/>
    <path d="M500.651,94.222c-0,-38.383 -31.163,-69.546 -69.546,-69.546l-346.698,0c-38.383,0 -69.545,31.163 -69.545,69.546l-0,324.547c-0,38.383 31.162,69.545 69.545,69.545l346.698,0c38.383,0 69.546,-31.162 69.546,-69.545l-0,-324.547Zm-40,0l-0,324.547c-0,16.306 -13.239,29.545 -29.546,29.545l-346.698,0c-16.306,0 -29.545,-13.239 -29.545,-29.545l-0,-324.547c-0,-16.307 13.239,-29.546 29.545,-29.546c0,0 346.698,0 346.698,0c16.307,0 29.546,13.239 29.546,29.546Z"/>
    <path d="M200.593,342.191c0,-14.229 -11.552,-25.781 -25.781,-25.781l-134.198,0l-9.782,37.781c0,0 93.417,-0.473 116.537,-0.097c7.628,0.124 13.664,8.915 13.859,16.577c0.518,20.363 -0.105,100.856 -0.105,100.856l39.47,-9.023l0,-120.313Z"/>
    <path d="M409.951,89.396l-102.513,-0c-12.418,-0 -22.5,10.082 -22.5,22.5c0,12.418 10.082,22.5 22.5,22.5l48.193,-0c0,-0 -121.992,121.992 -121.992,121.992c-8.781,8.781 -8.781,23.039 -0,31.82c8.781,8.78 23.039,8.78 31.82,-0l121.992,-121.993l-0,44.525c-0,12.418 10.082,22.5 22.5,22.5c12.418,-0 22.5,-10.082 22.5,-22.5l-0,-98.693c0.004,-0.574 -0.014,-1.151 -0.055,-1.727l-0,-0.012l-0.006,-0.081l-0.004,-0.058l-0.001,-0.011c-0.258,-3.371 -1.26,-6.534 -2.842,-9.326c-1.942,-3.441 -4.728,-6.26 -8.03,-8.238l-0.015,-0.009l-0.028,-0.017l-0.056,-0.033l-0.017,-0.01c-3.183,-1.887 -6.869,-3.01 -10.806,-3.12l-0.004,-0c-0.133,-0.004 -0.267,-0.007 -0.401,-0.008l-0.022,-0l-0.021,-0c-0.063,-0.001 -0.128,-0.001 -0.192,-0.001Z"/>
</svg>
